<svg width="24" height="24" viewBox="0 0 24 24" fill="none" xmlns="http://www.w3.org/2000/svg">
<g clip-path="url(#clip0_201_5833)">
<path d="M12 14.664L3.08401 5.74801C2.42401 5.08801 1.36801 5.08801 0.708013 5.74801C0.0480127 6.40801 0.0480127 7.46401 0.708013 8.12401L10.572 17.988C10.632 18.084 10.704 18.168 10.788 18.252C11.124 18.588 11.556 18.756 12 18.744C12.432 18.744 12.876 18.588 13.212 18.252C13.296 18.168 13.368 18.084 13.428 17.988L23.292 8.12401C23.616 7.80001 23.784 7.36801 23.784 6.93601C23.784 6.50401 23.616 6.07201 23.292 5.74801C22.632 5.08801 21.576 5.08801 20.916 5.74801L12 14.664Z" fill="#E6E6E6" fill-opacity="0.6"/>
</g>
<defs>
<clipPath id="clip0_201_5833">
<rect width="24" height="24" fill="white"/>
</clipPath>
</defs>
</svg>
