<svg width="43" height="43" viewBox="0 0 43 43" fill="none" xmlns="http://www.w3.org/2000/svg">
<path d="M34.5437 21.8938C34.0183 21.3684 33.1691 21.3684 32.6437 21.8938L22.8437 31.6938V8.06254C22.8437 7.32076 22.2417 6.71875 21.4999 6.71875C20.7581 6.71875 20.1561 7.32076 20.1561 8.06254V31.6938L10.3562 21.8938C9.83072 21.3684 8.98153 21.3684 8.45609 21.8938C7.93065 22.4192 7.93065 23.2684 8.45609 23.7939L20.5499 35.8863C20.6735 36.0112 20.8226 36.1093 20.9879 36.1779C21.1505 36.2464 21.3252 36.2813 21.4999 36.2813C21.6746 36.2813 21.8493 36.2464 22.0132 36.1779C22.1785 36.1093 22.3263 36.0112 22.4512 35.8863L34.545 23.7939C35.0691 23.2684 35.0691 22.4192 34.5437 21.8938Z" fill="#E6E6E6"/>
</svg>
