<svg width="16" height="16" viewBox="0 0 16 16" fill="none" xmlns="http://www.w3.org/2000/svg">
<path d="M11.3333 14V12.6667C11.3333 11.9594 11.0524 11.2811 10.5523 10.781C10.0522 10.281 9.3739 10 8.66666 10H3.33332C2.62608 10 1.9478 10.281 1.44771 10.781C0.947608 11.2811 0.666656 11.9594 0.666656 12.6667V14" stroke="white" stroke-linecap="round" stroke-linejoin="round"/>
<path d="M6 7.33333C7.47275 7.33333 8.66666 6.13943 8.66666 4.66667C8.66666 3.19391 7.47275 2 6 2C4.52724 2 3.33333 3.19391 3.33333 4.66667C3.33333 6.13943 4.52724 7.33333 6 7.33333Z" stroke="white" stroke-linecap="round" stroke-linejoin="round"/>
<path d="M15.3333 14V12.6667C15.3329 12.0758 15.1362 11.5019 14.7742 11.0349C14.4122 10.5679 13.9054 10.2344 13.3333 10.0867" stroke="white" stroke-linecap="round" stroke-linejoin="round"/>
<path d="M10.6667 2.08667C11.2403 2.23354 11.7487 2.56714 12.1118 3.03488C12.4748 3.50262 12.6719 4.07789 12.6719 4.67C12.6719 5.26212 12.4748 5.83739 12.1118 6.30513C11.7487 6.77287 11.2403 7.10647 10.6667 7.25334" stroke="white" stroke-linecap="round" stroke-linejoin="round"/>
</svg>
