<svg width="39" height="31" viewBox="0 0 39 31" fill="none" xmlns="http://www.w3.org/2000/svg">
<path fill-rule="evenodd" clip-rule="evenodd" d="M17.23 19.3749V4.30554C17.23 1.92766 15.3024 0 12.9245 0H4.31339C1.9355 0 0.00784413 1.92766 0.00784413 4.30554V12.9166C0.00784413 15.2945 1.9355 17.2221 4.31339 17.2221H10.7717V19.3749C10.8116 21.4601 9.35137 23.2742 7.30574 23.6805C6.82848 23.7878 6.4836 24.2034 6.46616 24.6923V28.9979C6.45016 29.3319 6.5844 29.6558 6.83213 29.8805C7.06112 30.0845 7.3676 30.1789 7.67171 30.1388C13.1413 29.5225 17.2647 24.8791 17.23 19.3749ZM25.8416 0H34.4527C36.8305 0 38.7582 1.92766 38.7582 4.30554V19.3749C38.7818 24.8708 34.6613 29.5018 29.1999 30.1173C28.8958 30.1574 28.5894 30.063 28.3603 29.8589C28.1298 29.6491 27.9971 29.3526 27.9944 29.0409V24.7354C27.9921 24.2303 28.3413 23.7916 28.834 23.6805C30.8796 23.2742 32.3399 21.4601 32.2999 19.3749V17.2221H25.8416C23.4637 17.2221 21.5361 15.2945 21.5361 12.9166V4.30554C21.5361 1.92766 23.4637 0 25.8416 0Z" fill="#641DAC"/>
</svg>
