<svg width="14" height="14" viewBox="0 0 14 14" fill="none" xmlns="http://www.w3.org/2000/svg">
<path d="M3.14453 4.51846C3.14453 4.83553 3.20698 5.14949 3.32832 5.44243C3.44966 5.73536 3.62751 6.00153 3.85171 6.22573C4.07591 6.44994 4.34208 6.62778 4.63501 6.74912C4.92795 6.87046 5.24191 6.93291 5.55898 6.93291C5.87605 6.93291 6.19002 6.87046 6.48296 6.74912C6.77589 6.62778 7.04206 6.44994 7.26626 6.22573C7.49046 6.00153 7.66831 5.73536 7.78965 5.44243C7.91099 5.14949 7.97344 4.83553 7.97344 4.51846C7.97344 3.8781 7.71906 3.26398 7.26626 2.81118C6.81346 2.35838 6.19934 2.104 5.55898 2.104C4.91863 2.104 4.30451 2.35838 3.85171 2.81118C3.39891 3.26398 3.14453 3.8781 3.14453 4.51846Z" fill="#FF3434"/>
<path d="M6.71563 7.06952H4.81797C2.6209 7.06952 0.84082 8.8496 0.84082 11.0467C0.84082 11.7098 1.37949 12.2484 2.04258 12.2484H9.26406C9.78496 12.2484 10.2074 11.826 10.2074 11.3051V10.5613C10.2074 8.63359 8.64336 7.06952 6.71563 7.06952ZM8.28242 4.49921C8.28242 5.13769 8.05 5.72148 7.66445 6.17128C7.61934 6.22324 7.62207 6.30116 7.66992 6.35175C8.00352 6.69765 8.47246 6.9123 8.99062 6.9123C10.0105 6.9123 10.8363 6.08241 10.8295 5.06113C10.8227 4.06308 10.0105 3.24687 9.0125 3.23593C8.73086 3.2332 8.46426 3.29199 8.225 3.40273C8.14023 3.44238 8.09785 3.53945 8.1293 3.62695C8.2291 3.89765 8.28242 4.1916 8.28242 4.49921Z" fill="#FF3434"/>
<path d="M9.32156 7.21191H8.79109C8.68308 7.21191 8.64343 7.3541 8.7364 7.41016C9.79324 8.0377 10.5014 9.19023 10.5014 10.5096V11.2766C10.5014 11.483 10.4372 11.6744 10.3264 11.833C10.2772 11.9027 10.3264 11.9998 10.4126 11.9998H11.6759C12.1571 11.9998 12.5481 11.6088 12.5481 11.1275V10.4412C12.5481 8.65703 11.103 7.21191 9.32156 7.21191Z" fill="#FF3434"/>
</svg>
