<svg width="24" height="24" viewBox="0 0 24 24" fill="none" xmlns="http://www.w3.org/2000/svg">
<path d="M17.7143 1.71429C18.9267 1.71429 20.0895 2.19592 20.9468 3.05323C21.8041 3.91054 22.2857 5.0733 22.2857 6.28571V17.7143C22.2857 18.9267 21.8041 20.0895 20.9468 20.9468C20.0895 21.8041 18.9267 22.2857 17.7143 22.2857H6.28571C5.0733 22.2857 3.91054 21.8041 3.05323 20.9468C2.19592 20.0895 1.71429 18.9267 1.71429 17.7143V6.28571C1.71429 5.0733 2.19592 3.91054 3.05323 3.05323C3.91054 2.19592 5.0733 1.71429 6.28571 1.71429H17.7143ZM17.7143 0H6.28571C4.6191 0.00151304 3.02119 0.664242 1.84271 1.84271C0.664242 3.02119 0.00151304 4.6191 0 6.28571L0 17.7143C0.00151304 19.3809 0.664242 20.9788 1.84271 22.1573C3.02119 23.3358 4.6191 23.9985 6.28571 24H17.7143C19.3809 23.9985 20.9788 23.3358 22.1573 22.1573C23.3358 20.9788 23.9985 19.3809 24 17.7143V6.28571C23.9985 4.6191 23.3358 3.02119 22.1573 1.84271C20.9788 0.664242 19.3809 0.00151304 17.7143 0ZM12 6.85714C13.0172 6.85714 14.0115 7.15877 14.8572 7.72387C15.703 8.28897 16.3621 9.09218 16.7514 10.0319C17.1406 10.9716 17.2425 12.0057 17.044 13.0033C16.8456 14.0009 16.3558 14.9173 15.6365 15.6365C14.9173 16.3558 14.0009 16.8456 13.0033 17.044C12.0057 17.2425 10.9716 17.1406 10.0319 16.7514C9.09218 16.3621 8.28897 15.703 7.72387 14.8572C7.15877 14.0115 6.85714 13.0172 6.85714 12C6.85714 10.636 7.39898 9.32792 8.36345 8.36345C9.32792 7.39898 10.636 6.85714 12 6.85714ZM12 5.14286C10.6438 5.14286 9.31803 5.54502 8.19038 6.29849C7.06272 7.05197 6.18383 8.12291 5.66483 9.37589C5.14583 10.6289 5.01003 12.0076 5.27462 13.3378C5.5392 14.6679 6.19228 15.8897 7.15127 16.8487C8.11026 17.8077 9.33208 18.4608 10.6622 18.7254C11.9924 18.99 13.3711 18.8542 14.6241 18.3352C15.8771 17.8162 16.948 16.9373 17.7015 15.8096C18.455 14.682 18.8571 13.3562 18.8571 12C18.8555 10.1819 18.1325 8.43871 16.8469 7.15311C15.5613 5.8675 13.8181 5.14452 12 5.14286ZM19.7143 4.85714C19.7143 5.08318 19.6473 5.30414 19.5217 5.49208C19.3961 5.68002 19.2176 5.82651 19.0088 5.91301C18.8 5.99951 18.5702 6.02214 18.3485 5.97804C18.1268 5.93394 17.9231 5.8251 17.7633 5.66527C17.6035 5.50543 17.4946 5.3018 17.4505 5.0801C17.4064 4.85841 17.4291 4.62862 17.5156 4.41979C17.6021 4.21096 17.7485 4.03247 17.9365 3.90689C18.1244 3.78131 18.3454 3.71429 18.5714 3.71429C18.8745 3.71429 19.1652 3.83469 19.3796 4.04902C19.5939 4.26335 19.7143 4.55404 19.7143 4.85714Z" fill="white"/>
</svg>
