<svg width="18" height="18" viewBox="0 0 18 18" fill="none" xmlns="http://www.w3.org/2000/svg">
<path d="M4.04297 5.80937C4.04297 6.21704 4.12326 6.62071 4.27927 6.99734C4.43527 7.37397 4.66394 7.71618 4.9522 8.00444C5.24046 8.2927 5.58267 8.52137 5.9593 8.67737C6.33593 8.83338 6.7396 8.91367 7.14727 8.91367C7.55493 8.91367 7.9586 8.83338 8.33523 8.67737C8.71186 8.52137 9.05407 8.2927 9.34233 8.00444C9.63059 7.71618 9.85926 7.37397 10.0153 6.99734C10.1713 6.62071 10.2516 6.21704 10.2516 5.80937C10.2516 4.98606 9.9245 4.19647 9.34233 3.61431C8.76017 3.03214 7.97058 2.70508 7.14727 2.70508C6.32395 2.70508 5.53436 3.03214 4.9522 3.61431C4.37003 4.19647 4.04297 4.98606 4.04297 5.80937Z" fill="#00C499"/>
<path d="M8.63438 9.08967H6.19453C3.36973 9.08967 1.08105 11.3783 1.08105 14.2031C1.08105 15.0557 1.77363 15.7483 2.62617 15.7483H11.9109C12.5807 15.7483 13.1238 15.2051 13.1238 14.5354V13.5791C13.1238 11.1006 11.1129 9.08967 8.63438 9.08967ZM10.6488 5.78498C10.6488 6.60588 10.35 7.35646 9.8543 7.93478C9.79629 8.00158 9.7998 8.10178 9.86133 8.16682C10.2902 8.61154 10.8932 8.88752 11.5594 8.88752C12.8707 8.88752 13.9324 7.82053 13.9236 6.50744C13.9148 5.22424 12.8707 4.17482 11.5875 4.16076C11.2254 4.15725 10.8826 4.23283 10.575 4.37521C10.466 4.42619 10.4115 4.551 10.452 4.6635C10.5803 5.01154 10.6488 5.38947 10.6488 5.78498Z" fill="#00C499"/>
<path d="M11.9848 9.27246H11.3028C11.1639 9.27246 11.113 9.45527 11.2325 9.52734C12.5913 10.3342 13.5018 11.816 13.5018 13.5123V14.4984C13.5018 14.7639 13.4192 15.01 13.2768 15.2139C13.2135 15.3035 13.2768 15.4283 13.3876 15.4283H15.0118C15.6305 15.4283 16.1333 14.9256 16.1333 14.3068V13.4244C16.1333 11.1305 14.2753 9.27246 11.9848 9.27246Z" fill="#00C499"/>
</svg>
