<svg width="126" height="150" viewBox="0 0 126 150" fill="none" xmlns="http://www.w3.org/2000/svg">
<g clip-path="url(#clip0_2_11798)">
<path d="M0.537229 143.052C1.66863 143.735 2.9633 144.098 4.2837 144.102C6.33365 144.102 7.52121 143.095 7.52121 141.634C7.52121 140.174 6.74364 139.508 4.52404 138.799C1.69651 137.948 0.282752 136.743 0.282752 134.658C0.282752 132.574 2.27616 130.688 5.25919 130.688C6.49474 130.642 7.72272 130.9 8.83601 131.44L8.27051 133.014C7.33025 132.514 6.281 132.255 5.21678 132.262C3.03959 132.262 2.26202 133.481 2.26202 134.46C2.26202 135.778 3.18096 136.473 5.38643 137.182C8.07258 138.047 9.45807 139.181 9.45807 141.436C9.45807 143.69 7.86052 145.69 4.07163 145.69C2.64555 145.694 1.24263 145.328 0 144.626L0.537229 143.052Z" fill="#F6F8F9"/>
<path d="M22.7191 140.117C22.7423 140.873 22.6079 141.625 22.3244 142.326C22.041 143.026 21.6148 143.66 21.0731 144.186C20.5315 144.712 19.8863 145.118 19.1789 145.38C18.4715 145.641 17.7175 145.752 16.9651 145.704C16.2504 145.737 15.5365 145.623 14.8673 145.369C14.1982 145.115 13.5879 144.726 13.0741 144.227C12.5603 143.727 12.1538 143.128 11.8796 142.465C11.6054 141.802 11.4693 141.09 11.4797 140.372C11.4573 139.627 11.5891 138.885 11.8669 138.192C12.1447 137.5 12.5623 136.874 13.0936 136.351C13.6249 135.829 14.2582 135.423 14.9537 135.158C15.6493 134.894 16.3919 134.777 17.1348 134.814C17.8566 134.761 18.5816 134.859 19.2634 135.103C19.9453 135.346 20.5689 135.73 21.0945 136.229C21.6201 136.728 22.036 137.332 22.3158 138.001C22.5955 138.671 22.7329 139.391 22.7191 140.117ZM13.4873 140.287C13.4423 140.789 13.5015 141.295 13.6612 141.772C13.8209 142.25 14.0775 142.689 14.415 143.062C14.7524 143.435 15.1633 143.734 15.6217 143.94C16.0801 144.145 16.576 144.254 17.0782 144.258C17.8873 144.344 18.7035 144.181 19.4185 143.792C20.1335 143.402 20.7136 142.804 21.0821 142.077C21.4505 141.349 21.5899 140.526 21.4816 139.718C21.3734 138.909 21.0227 138.152 20.476 137.548C19.9293 136.943 19.2125 136.52 18.4204 136.333C17.6283 136.146 16.7983 136.206 16.0405 136.503C15.2827 136.8 14.6327 137.321 14.1768 137.997C13.7208 138.673 13.4804 139.471 13.4873 140.287Z" fill="#F6F8F9"/>
<path d="M33.4921 145.037C32.4187 145.491 31.2637 145.718 30.099 145.704C29.3703 145.768 28.6364 145.677 27.9451 145.437C27.2537 145.197 26.6206 144.814 26.087 144.312C25.5533 143.811 25.1312 143.202 24.8481 142.525C24.565 141.849 24.4273 141.12 24.444 140.387C24.444 137.111 26.8474 134.8 30.4949 134.8C31.5321 134.784 32.5602 134.997 33.5062 135.424L33.0538 136.842C32.2679 136.437 31.3917 136.242 30.509 136.275C29.9985 136.27 29.492 136.366 29.0185 136.558C28.545 136.75 28.1138 137.033 27.7495 137.392C27.3852 137.75 27.095 138.178 26.8953 138.649C26.6956 139.12 26.5905 139.626 26.5858 140.138C26.5812 140.651 26.6772 141.158 26.8683 141.633C27.0593 142.108 27.3418 142.541 27.6996 142.906C28.0573 143.271 28.4833 143.563 28.9532 143.763C29.4231 143.963 29.9278 144.068 30.4383 144.073C31.3609 144.08 32.2734 143.881 33.1103 143.492L33.4921 145.037Z" fill="#F6F8F9"/>
<path d="M38.1716 132.035C38.1738 132.199 38.1424 132.361 38.0792 132.512C38.016 132.663 37.9224 132.8 37.8044 132.913C37.6863 133.026 37.5462 133.113 37.3929 133.17C37.2396 133.226 37.0763 133.25 36.9134 133.24C36.7545 133.244 36.5965 133.216 36.4489 133.156C36.3014 133.097 36.1674 133.009 36.055 132.896C35.9426 132.783 35.8542 132.649 35.7952 132.501C35.7362 132.353 35.7078 132.194 35.7117 132.035C35.7116 131.873 35.744 131.713 35.807 131.564C35.87 131.415 35.9624 131.28 36.0785 131.167C36.1946 131.055 36.3321 130.967 36.4829 130.909C36.6336 130.851 36.7944 130.824 36.9558 130.83C37.1158 130.824 37.2753 130.851 37.4246 130.909C37.5738 130.968 37.7095 131.056 37.8234 131.169C37.9373 131.282 38.027 131.417 38.0868 131.566C38.1467 131.715 38.1756 131.875 38.1716 132.035ZM35.9661 145.448V135.055H37.9171V145.448H35.9661Z" fill="#F6F8F9"/>
<path d="M47.6013 145.448L47.4175 144.031C46.9941 144.559 46.4549 144.982 45.8419 145.267C45.229 145.552 44.5587 145.692 43.8831 145.675C43.4624 145.718 43.0374 145.674 42.6344 145.545C42.2315 145.416 41.8593 145.206 41.5411 144.926C41.2228 144.647 40.9652 144.305 40.7844 143.922C40.6036 143.538 40.5035 143.122 40.4901 142.698C40.4901 140.202 42.7521 138.742 47.3186 138.784V138.6C47.3412 138.26 47.2876 137.92 47.1619 137.603C47.0362 137.287 46.8415 137.003 46.5921 136.772C46.3427 136.54 46.0448 136.368 45.7204 136.267C45.396 136.167 45.0533 136.14 44.7173 136.19C43.6489 136.181 42.5999 136.476 41.6918 137.04L41.2394 135.75C42.3817 135.089 43.6813 134.751 45 134.772C48.5203 134.772 49.2413 137.21 49.2413 139.21V142.882C49.2341 143.731 49.2909 144.58 49.4109 145.42L47.6013 145.448ZM47.2903 140.16C44.8586 140.16 42.4128 140.543 42.4128 142.471C42.4033 142.721 42.4476 142.97 42.5426 143.202C42.6376 143.433 42.7812 143.641 42.9637 143.812C43.1461 143.983 43.363 144.112 43.5997 144.192C43.8364 144.271 44.0874 144.298 44.3355 144.272C44.9324 144.29 45.521 144.128 46.0251 143.807C46.5292 143.486 46.9256 143.02 47.1631 142.471C47.228 142.279 47.2614 142.078 47.262 141.875L47.2903 140.16Z" fill="#F6F8F9"/>
<path d="M52.4929 130.064H54.4439V145.449H52.4929V130.064Z" fill="#F6F8F9"/>
<path d="M62.9265 141.407C64.2223 142.043 65.6409 142.386 67.083 142.414C68.4261 142.414 69.1188 141.989 69.1188 141.252C69.1188 140.514 68.4543 140.231 66.6871 139.734C64.2272 139.04 62.2055 137.778 62.2055 135.254C62.2055 132.73 64.5665 130.702 68.313 130.702C69.8251 130.656 71.3294 130.936 72.7239 131.525L71.7908 134.701C70.6709 134.212 69.4637 133.956 68.2423 133.949C67.0406 133.949 66.3478 134.332 66.3478 134.956C66.3478 135.58 67.2668 135.991 69.1754 136.587C72.0029 137.494 73.3035 138.855 73.3035 141.039C73.3035 143.478 71.395 145.704 66.7861 145.704C65.1709 145.707 63.5725 145.374 62.0924 144.725L62.9265 141.407Z" fill="#F6F8F9"/>
<path d="M79.4676 131.936C79.4633 132.201 79.4039 132.462 79.2931 132.702C79.1823 132.943 79.0226 133.157 78.8243 133.332C78.6259 133.507 78.3933 133.639 78.1413 133.718C77.8893 133.797 77.6235 133.823 77.3611 133.793C77.1033 133.816 76.8437 133.785 76.5987 133.701C76.3537 133.618 76.1287 133.484 75.9379 133.309C75.7472 133.133 75.5948 132.92 75.4906 132.683C75.3865 132.445 75.3326 132.188 75.3326 131.929C75.3326 131.669 75.3865 131.413 75.4906 131.175C75.5948 130.938 75.7472 130.724 75.9379 130.549C76.1287 130.374 76.3537 130.24 76.5987 130.157C76.8437 130.073 77.1033 130.042 77.3611 130.064C77.6247 130.035 77.8917 130.061 78.1446 130.141C78.3975 130.221 78.6309 130.354 78.8295 130.53C79.028 130.707 79.1875 130.923 79.2974 131.165C79.4073 131.407 79.4653 131.67 79.4676 131.936ZM75.3535 145.449V134.871H79.3969V145.449H75.3535Z" fill="#F6F8F9"/>
<path d="M93.1669 134.871C93.1669 135.396 93.0679 136.204 93.0679 138.104V143.775C93.147 144.665 93.0339 145.561 92.7362 146.403C92.4386 147.245 91.9634 148.012 91.3431 148.653C89.9857 149.671 88.3128 150.173 86.6212 150.071C85.1593 150.103 83.7092 149.803 82.3799 149.192L83.1574 146.143C84.195 146.696 85.3475 146.997 86.5222 147.022C86.8589 147.052 87.1979 147.008 87.516 146.893C87.8342 146.779 88.124 146.597 88.3656 146.36C88.6073 146.123 88.795 145.837 88.9161 145.52C89.0371 145.204 89.0886 144.865 89.067 144.527V144.059C88.718 144.466 88.2834 144.79 87.7945 145.008C87.3055 145.227 86.7744 145.333 86.2394 145.321C85.5767 145.331 84.9191 145.202 84.3093 144.942C83.6995 144.681 83.151 144.295 82.6992 143.809C82.2475 143.322 81.9026 142.746 81.6869 142.118C81.4711 141.489 81.3893 140.822 81.4468 140.16C81.4025 139.451 81.5029 138.741 81.7418 138.073C81.9807 137.404 82.3531 136.792 82.8362 136.273C83.3192 135.754 83.9028 135.339 84.5512 135.054C85.1996 134.769 85.8991 134.62 86.607 134.616C87.1841 134.572 87.7626 134.68 88.2856 134.929C88.8086 135.177 89.2582 135.558 89.59 136.034L89.689 134.871H93.1669ZM89.067 139.394C89.0835 139.248 89.0835 139.101 89.067 138.954C89.0279 138.56 88.8416 138.194 88.5454 137.931C88.2491 137.669 87.8649 137.527 87.4694 137.537C86.5505 137.537 85.575 138.302 85.575 140.075C85.5417 140.353 85.5653 140.636 85.6444 140.905C85.7234 141.174 85.8563 141.425 86.0348 141.641C86.2133 141.857 86.4338 142.035 86.6828 142.163C86.9319 142.291 87.2043 142.367 87.4835 142.386C87.8491 142.394 88.2059 142.273 88.4924 142.046C88.7789 141.818 88.9771 141.497 89.0528 141.138C89.0765 140.884 89.0812 140.628 89.067 140.372V139.394Z" fill="#F6F8F9"/>
<path d="M95.641 138.543C95.641 137.04 95.641 135.821 95.5562 134.871H99.0481L99.2319 136.289H99.3168C99.6954 135.76 100.198 135.332 100.779 135.043C101.361 134.754 102.004 134.612 102.653 134.63C105.184 134.63 106.753 136.261 106.753 139.366V145.463H102.696V139.947C102.696 138.529 102.201 137.834 101.197 137.834C100.88 137.823 100.568 137.918 100.311 138.106C100.055 138.294 99.8688 138.563 99.7833 138.869C99.7119 139.099 99.6832 139.339 99.6985 139.578V145.449H95.641V138.543Z" fill="#F6F8F9"/>
<path d="M115.745 145.449L115.533 144.541H115.448C115.047 144.945 114.565 145.258 114.033 145.459C113.501 145.66 112.933 145.743 112.366 145.704C111.903 145.741 111.437 145.682 110.997 145.533C110.557 145.383 110.152 145.145 109.807 144.833C109.462 144.521 109.183 144.142 108.989 143.719C108.794 143.296 108.688 142.837 108.676 142.372C108.676 139.536 111.207 138.231 115.193 138.231C115.193 137.849 114.939 137.366 113.341 137.366C112.229 137.395 111.139 137.687 110.16 138.217L109.453 135.679C110.888 134.981 112.469 134.64 114.062 134.687C117.682 134.687 119.223 136.516 119.223 139.352V142.896C119.199 143.774 119.256 144.652 119.392 145.519L115.745 145.449ZM115.321 140.684C113.539 140.684 112.677 141.124 112.677 141.989C112.677 142.584 113.087 142.939 113.836 142.939C114.156 142.921 114.463 142.806 114.716 142.608C114.969 142.411 115.155 142.14 115.25 141.833C115.272 141.64 115.272 141.445 115.25 141.252L115.321 140.684Z" fill="#F6F8F9"/>
<path d="M121.796 130.064H125.825V145.449H121.796V130.064Z" fill="#F6F8F9"/>
<path d="M89.6183 25.7491C96.2315 25.7485 102.594 23.2122 107.403 18.6596C107.177 17.6448 106.81 16.6665 106.315 15.7529C104.153 18.0035 101.559 19.7919 98.6896 21.0103C95.8201 22.2287 92.7344 22.852 89.6183 22.8424C83.5763 22.8299 77.7769 20.4568 73.4508 16.2265C69.1246 11.9962 66.6123 6.2418 66.4468 0.184327C65.4572 0.184327 64.4958 0.0425371 63.6193 0C63.7194 6.85426 66.5009 13.3946 71.3643 18.2112C76.2277 23.0278 82.7834 25.735 89.6183 25.7491Z" fill="#8DC9F8"/>
<path d="M89.6184 17.9365C92.1903 17.9293 94.7314 17.3745 97.0735 16.3087C99.4156 15.243 101.505 13.6907 103.205 11.7544C102.476 11.1434 101.706 10.5843 100.9 10.0813C99.4638 11.6562 97.7167 12.9144 95.7697 13.776C93.8226 14.6376 91.7183 15.0839 89.5901 15.0865C85.7366 15.0761 82.0266 13.6193 79.1903 11.003C76.354 8.38676 74.597 4.80043 74.265 0.95L72.1019 0.723136L71.395 0.638062C71.6584 5.30902 73.6923 9.70228 77.0802 12.9182C80.4681 16.1342 84.9537 17.9295 89.6184 17.9365Z" fill="#8DC9F8"/>
<path d="M89.6183 10.1096C92.0784 10.1162 94.46 9.24129 96.3337 7.64247L94.722 6.91934L93.3082 6.32382C92.1892 6.95049 90.9282 7.27766 89.6466 7.27381C88.1063 7.2601 86.6063 6.77853 85.3444 5.8926C84.0824 5.00666 83.1179 3.75797 82.5778 2.31115C81.7154 2.09847 80.6833 1.88578 79.4534 1.6731C79.9216 4.03739 81.1883 6.16747 83.04 7.70426C84.8916 9.24105 87.2149 10.0906 89.6183 10.1096Z" fill="#8DC9F8"/>
<path d="M24.3732 73.0078C23.1677 73.6029 22.0651 74.388 21.1074 75.3332C26.7674 75.9835 31.9918 78.6973 35.787 82.9585C39.5823 87.2198 41.6837 92.7313 41.6918 98.445C41.6958 101.088 41.2463 103.711 40.3629 106.201L42.1725 106.726L43.1056 106.967C44.2975 103.508 44.751 99.8362 44.4366 96.1902C44.1221 92.5442 43.0468 89.0052 41.2804 85.803C39.514 82.6008 37.096 79.8068 34.1833 77.6025C31.2705 75.3982 27.9282 73.8328 24.3732 73.0078Z" fill="#5E4FFF"/>
<path d="M18.4921 80.1541C18.1669 80.1541 17.8276 80.1541 17.5166 80.1541C17.0107 81.0922 16.6168 82.0868 16.3431 83.1175C18.9586 82.7474 21.6251 83.0585 24.0861 84.0208C26.547 84.9831 28.7198 86.5642 30.3954 88.6121C32.0709 90.66 33.193 93.1058 33.6536 95.7144C34.1142 98.3229 33.8979 101.006 33.0255 103.507C33.4779 103.72 33.9303 103.918 34.4393 104.102L35.6975 104.585C36.6755 101.822 36.9778 98.8651 36.579 95.9615C36.1802 93.0578 35.092 90.2926 33.406 87.8985C31.7199 85.5044 29.4852 83.5514 26.8899 82.2037C24.2946 80.856 21.4146 80.1531 18.4921 80.1541Z" fill="#5E4FFF"/>
<path d="M18.4921 87.91C17.77 87.9131 17.05 87.9891 16.3431 88.1368C16.6028 88.9154 16.9194 89.6737 17.2904 90.4055L17.5166 90.8167C17.8414 90.7945 18.1673 90.7945 18.4921 90.8167C20.5106 90.8204 22.4452 91.6273 23.8712 93.0601C25.2972 94.4929 26.0981 96.4347 26.0981 98.4592C26.1125 98.7473 26.1125 99.036 26.0981 99.3241C26.8191 99.8629 27.5119 100.388 28.2612 100.87L28.6287 101.111C28.8618 100.246 28.9807 99.3547 28.9822 98.4592C28.9896 97.0741 28.7236 95.7013 28.1994 94.4199C27.6752 93.1384 26.9033 91.9738 25.9281 90.9931C24.9529 90.0124 23.7937 89.235 22.5174 88.7059C21.2412 88.1767 19.8731 87.9062 18.4921 87.91Z" fill="#5E4FFF"/>
<path d="M58.4591 41.5446C57.0803 41.2791 55.7202 40.9239 54.3874 40.4812C50.0483 47.9601 42.9904 53.4634 34.6937 55.8371C36.1571 56.5824 37.663 57.2405 39.2036 57.808L40.2498 58.1908C48.0136 54.8541 54.4288 48.9895 58.4591 41.5446Z" fill="#5E4FFF"/>
<path d="M58.8831 23.6648C59.378 23.6648 59.901 23.5797 60.4383 23.5655C61.3007 23.5655 62.1207 23.5655 62.9406 23.4946C62.87 14.9559 59.8751 6.70107 54.4581 0.113403C52.8268 0.23971 51.2035 0.452694 49.5947 0.75146C55.5199 6.90301 58.8475 15.1118 58.8831 23.6648Z" fill="#5E4FFF"/>
<path d="M41.3526 2.83582L40.8295 2.99178C39.4395 3.46569 38.0798 4.02445 36.7578 4.66491C40.9438 7.11644 44.2085 10.882 46.0478 15.38C47.8871 19.8781 48.1986 24.8583 46.9342 29.5516C45.6697 34.2449 42.8998 38.3901 39.0521 41.347C35.2044 44.304 30.4931 45.9081 25.6457 45.9117C24.8964 45.9117 24.2319 45.9117 23.4543 45.7983C24.3812 47.2662 25.4261 48.6556 26.5788 49.9527C31.1845 49.7856 35.6641 48.3989 39.5626 45.9335C43.461 43.468 46.6394 40.0117 48.7748 35.9155C48.3171 35.0374 48.0566 34.0695 48.0114 33.0797C48.0285 31.9108 48.2888 30.7584 48.7757 29.6963C49.2626 28.6342 49.9654 27.6858 50.8389 26.9118C51.1191 26.6289 51.4166 26.3637 51.7296 26.1178C51.8003 25.3663 51.8427 24.6148 51.8427 23.8491C51.8504 19.7685 50.9057 15.7427 49.0842 12.0939C47.2626 8.44504 44.6148 5.27445 41.3526 2.83582Z" fill="#5E4FFF"/>
<path d="M40.6173 23.7782C40.6159 20.4687 39.5242 17.2523 37.5121 14.6292C35.5 12.0061 32.6802 10.1231 29.491 9.27307C28.3785 10.1978 27.3255 11.1924 26.3383 12.2507C26.1545 12.435 25.9849 12.6477 25.8152 12.8462C27.5157 12.8712 29.1867 13.2949 30.6947 14.0834C32.2027 14.8719 33.5058 16.0033 34.4998 17.3872C35.4938 18.7712 36.1512 20.3692 36.4193 22.0534C36.6875 23.7377 36.5589 25.4615 36.044 27.0871C35.5291 28.7126 34.6421 30.1948 33.4539 31.4151C32.2657 32.6353 30.8093 33.5598 29.2011 34.1146C27.593 34.6694 25.8777 34.8391 24.1925 34.6102C22.5072 34.3812 20.8988 33.76 19.4957 32.7961C19.5173 34.4287 19.6829 36.0562 19.9905 37.6595C22.2621 38.5926 24.7277 38.9507 27.1699 38.7021C29.612 38.4536 31.9557 37.606 33.994 36.2343C36.0323 34.8625 37.7027 33.0087 38.8578 30.8364C40.0129 28.6641 40.6172 26.2401 40.6173 23.7782Z" fill="#5E4FFF"/>
<path d="M68.3696 109.632C63.4021 107.108 59.1462 103.373 55.9919 98.7697C52.8376 94.1668 50.8859 88.8435 50.3158 83.2876C50.0048 83.1742 49.6938 83.0749 49.3828 82.9473C48.2731 82.5366 47.1874 82.0632 46.1311 81.5294C46.3679 87.0039 47.8043 92.3588 50.3382 97.2135C52.8721 102.068 56.4412 106.303 60.7918 109.618H62.5449C64.2037 109.713 66.1453 109.717 68.3696 109.632Z" fill="#8DC9F8"/>
<path d="M55.4618 61.8632C58.4715 57.1716 62.608 53.3135 67.4916 50.6428C72.3752 47.9721 77.8495 46.5745 83.4119 46.5782C84.8876 46.5812 86.3613 46.6855 87.8228 46.8901L87.2997 46.7058C84.3037 45.7833 81.2596 45.026 78.181 44.4371L73.7418 43.7991C64.2088 46.3873 56.0797 52.6446 51.1216 61.2109L52.1819 61.3953L55.4618 61.8632Z" fill="#8DC9F8"/>
<path d="M68.5392 63.5362C72.0994 60.2904 76.6196 58.3003 81.4117 57.869C86.2037 57.4377 91.0051 58.5889 95.0845 61.1473C99.164 63.7056 102.298 67.5309 104.009 72.0407C105.721 76.5506 105.916 81.4978 104.565 86.129C103.214 90.7603 100.391 94.8219 96.5255 97.6953C92.6603 100.569 87.9646 102.097 83.1535 102.046C78.3425 101.996 73.6796 100.37 69.875 97.4161C66.0705 94.4623 63.3326 90.3424 62.0783 85.6839C60.4242 85.5988 58.9963 85.4712 57.837 85.2869C59.0796 91.1698 62.2967 96.4473 66.9512 100.238C71.6058 104.029 77.4161 106.104 83.412 106.116C85.9306 106.117 88.4359 105.749 90.8484 105.024C91.3856 104.797 91.9228 104.556 92.4601 104.301C100.08 100.499 105.952 93.9049 108.86 85.8824C109.32 83.9262 109.553 81.923 109.552 79.913C109.56 74.5554 107.928 69.3245 104.877 64.9266C101.826 60.5287 97.5031 57.1758 92.4917 55.3206C87.4802 53.4653 82.0217 53.1971 76.8535 54.5522C71.6852 55.9073 67.056 58.8205 63.591 62.8982L66.8427 63.2952L68.5392 63.5362Z" fill="#8DC9F8"/>
<path d="M80.3582 67.875C80.6923 68.2927 81.0038 68.7282 81.2913 69.1795C81.9888 69.0343 82.6995 68.963 83.4119 68.9668C85.3354 68.9637 87.2255 69.4705 88.8909 70.4358C90.5562 71.4011 91.9377 72.7907 92.8952 74.4638C93.8528 76.1368 94.3524 78.034 94.3436 79.9631C94.3348 81.8922 93.8179 83.7847 92.8451 85.4489C91.8723 87.1132 90.4783 88.49 88.8042 89.44C87.1301 90.39 85.2354 90.8794 83.312 90.8586C81.3886 90.8378 79.5049 90.3076 77.8516 89.3217C76.1983 88.3358 74.8341 86.9292 73.8973 85.2444C72.5017 85.5421 71.0822 85.7129 69.656 85.7548C70.8098 88.4854 72.7432 90.8127 75.2129 92.4436C77.6827 94.0745 80.5783 94.9361 83.5353 94.92C86.4922 94.904 89.3783 94.0109 91.8303 92.3533C94.2823 90.6957 96.1905 88.3475 97.3147 85.6046C98.4389 82.8616 98.7288 79.8463 98.148 76.9384C97.5672 74.0305 96.1417 71.36 94.0508 69.2629C91.9598 67.1658 89.2971 65.736 86.3977 65.1535C83.4983 64.571 80.4918 64.8618 77.7569 65.9892C78.7474 66.4258 79.6341 67.0687 80.3582 67.875Z" fill="#8DC9F8"/>
</g>
<defs>
<clipPath id="clip0_2_11798">
<rect width="125.839" height="150" fill="white"/>
</clipPath>
</defs>
</svg>
