<svg width="29" height="29" viewBox="0 0 29 29" fill="none" xmlns="http://www.w3.org/2000/svg">
<g clip-path="url(#clip0_82_6457)">
<path d="M19.5774 3.79904C21.1144 3.79904 22.5354 4.43704 23.5214 5.51004C24.7394 5.27804 25.9284 4.84303 26.9724 4.20504C26.5664 5.48103 25.6964 6.52504 24.6234 7.19204C25.7254 7.04704 26.7694 6.78604 27.6974 6.32204C26.9724 7.42404 26.0734 8.35204 25.0294 9.07704V9.74404C25.0294 16.878 19.5774 25.085 9.68841 25.085C6.67241 25.114 3.80141 24.215 1.45241 22.707C1.85841 22.765 2.32241 22.794 2.72841 22.794C5.28041 22.794 7.57141 21.924 9.42741 20.474C6.99141 20.474 4.99041 18.937 4.26541 16.762C4.58441 16.82 4.90341 16.849 5.25141 16.849C5.74441 16.849 6.15041 16.791 6.61441 16.675C4.17841 16.182 2.17741 14.007 2.17741 11.368V11.31C2.17741 11.716 3.85941 11.948 4.72941 11.977C3.27941 11.02 2.46741 9.33804 2.46741 7.48204C2.46741 6.49604 2.72841 5.56804 3.19241 4.75604C5.86041 8.03304 9.80441 10.15 14.2994 10.382C14.2124 9.97604 14.1544 9.57004 14.1544 9.16404C14.1834 6.23504 16.5904 3.79904 19.5774 3.79904ZM19.5774 2.43604C15.9524 2.43604 12.9944 5.30704 12.8204 8.87404C9.45641 8.32304 6.41141 6.55404 4.23641 3.88604C3.97541 3.62504 3.56941 3.42204 3.19241 3.42204H3.10541C2.61241 3.48004 2.23541 3.74104 2.00341 4.08904C1.42341 5.13304 1.10441 6.32204 1.10441 7.48204C1.10441 8.38103 1.27841 9.30904 1.56841 10.063C1.10441 10.295 0.78541 10.73 0.78541 11.281V11.339C0.78541 13.253 1.59741 15.022 2.96041 16.24C2.87341 16.501 2.87341 16.82 2.96041 17.139C3.45341 18.734 4.55541 20.039 5.86041 20.851C4.81641 21.228 3.71441 21.431 2.58341 21.431C2.20641 21.431 1.85841 21.431 1.45241 21.373H1.36541C0.78541 21.373 0.26341 21.75 0.0894098 22.272C-0.14259 22.852 0.0894098 23.548 0.64041 23.867C3.30841 25.578 6.44041 26.506 9.65941 26.506C20.1284 26.506 26.3634 18.038 26.3634 9.80204V9.74404C27.2624 8.96104 28.0744 8.12004 28.7704 7.10504C28.9154 6.93104 29.0024 6.72804 29.0024 6.52504C29.0894 6.06104 28.9154 5.62604 28.5964 5.30704C28.4514 5.16204 28.2774 5.07504 28.1034 4.98804L28.2484 4.58204C28.4224 4.03104 28.2484 3.45104 27.7844 3.07404C27.5524 2.90004 27.2334 2.75504 26.9144 2.75504C26.6824 2.75504 26.4214 2.81304 26.2474 2.92904C25.5224 3.39304 24.7394 3.71204 23.9274 3.91504C22.7094 3.01604 21.1724 2.43604 19.5774 2.43604Z" fill="white"/>
</g>
<defs>
<clipPath id="clip0_82_6457">
<rect width="29" height="29" fill="white"/>
</clipPath>
</defs>
</svg>
