<svg width="35" height="40" viewBox="0 0 35 40" fill="none" xmlns="http://www.w3.org/2000/svg">
<path d="M26.7984 9.38955C29.217 9.38932 31.544 8.46444 33.3029 6.80432C33.22 6.43425 33.086 6.07752 32.9048 5.74438C32.1141 6.56508 31.1654 7.21722 30.116 7.66152C29.0666 8.10582 27.9381 8.33308 26.7984 8.3296C24.5887 8.32505 22.4678 7.45966 20.8856 5.91707C19.3034 4.37448 18.3846 2.2761 18.3241 0.0672159C17.9621 0.0672159 17.6105 0.0155114 17.29 0C17.3266 2.49944 18.3439 4.88441 20.1225 6.64081C21.9012 8.39721 24.2987 9.38439 26.7984 9.38955Z" fill="#8DC9F8"/>
<path d="M26.7984 6.54062C27.739 6.53799 28.6684 6.33568 29.5249 5.94706C30.3815 5.55844 31.1458 4.99237 31.7673 4.2863C31.5009 4.06349 31.2193 3.85962 30.9245 3.67619C30.3991 4.25047 29.7602 4.70928 29.0481 5.02348C28.336 5.33768 27.5664 5.50042 26.7881 5.50136C25.3788 5.49756 24.0219 4.96635 22.9846 4.01231C21.9474 3.05827 21.3048 1.75049 21.1833 0.346416L20.3923 0.263689L20.1337 0.232666C20.23 1.93595 20.9739 3.53798 22.2129 4.71069C23.452 5.8834 25.0924 6.53806 26.7984 6.54062Z" fill="#8DC9F8"/>
<path d="M26.7985 3.68653C27.6982 3.68894 28.5692 3.36989 29.2545 2.78687L28.665 2.52318L28.148 2.30602C27.7387 2.53454 27.2776 2.65384 26.8088 2.65244C26.2455 2.64744 25.6969 2.47183 25.2354 2.14877C24.7739 1.82571 24.4211 1.37037 24.2236 0.842778C23.9082 0.765221 23.5308 0.687664 23.0809 0.610107C23.2522 1.47226 23.7155 2.249 24.3926 2.8094C25.0698 3.3698 25.9195 3.67958 26.7985 3.68653Z" fill="#8DC9F8"/>
<path d="M2.93681 26.6227C2.49592 26.8397 2.09267 27.126 1.74243 27.4706C3.81243 27.7078 5.7231 28.6974 7.11111 30.2513C8.49912 31.8051 9.26767 33.8149 9.27061 35.8985C9.2721 36.8621 9.10769 37.8188 8.78459 38.7267L9.44641 38.918L9.78766 39.0059C10.2236 37.7446 10.3894 36.4058 10.2744 35.0762C10.1595 33.7467 9.76619 32.4562 9.12017 31.2885C8.47415 30.1208 7.58982 29.102 6.52457 28.2982C5.45932 27.4944 4.23695 26.9235 2.93681 26.6227Z" fill="#5E4FFF"/>
<path d="M0.785909 29.2286C0.666988 29.2286 0.542898 29.2286 0.429148 29.2286C0.244127 29.5707 0.100084 29.9334 0 30.3093C0.956551 30.1743 1.93173 30.2878 2.83177 30.6387C3.7318 30.9896 4.52643 31.5661 5.13922 32.3129C5.75202 33.0597 6.16237 33.9516 6.33084 34.9028C6.4993 35.854 6.4202 36.8326 6.10114 37.7444C6.26659 37.8219 6.43205 37.8943 6.61818 37.9615L7.07835 38.1373C7.43601 37.1301 7.54657 36.0517 7.40073 34.9929C7.25489 33.934 6.85691 32.9257 6.24027 32.0527C5.62363 31.1797 4.80636 30.4675 3.8572 29.976C2.90804 29.4846 1.85475 29.2283 0.785909 29.2286Z" fill="#5E4FFF"/>
<path d="M0.785909 32.0568C0.521827 32.0579 0.25853 32.0856 0 32.1395C0.094951 32.4234 0.210739 32.6999 0.34642 32.9668L0.429148 33.1167C0.547931 33.1087 0.667125 33.1087 0.785909 33.1167C1.52414 33.1181 2.23166 33.4123 2.75319 33.9348C3.27471 34.4573 3.56761 35.1654 3.56761 35.9036C3.57289 36.0087 3.57289 36.1139 3.56761 36.219C3.83131 36.4155 4.08466 36.6068 4.35869 36.7826L4.49312 36.8705C4.57838 36.5552 4.62183 36.2302 4.62239 35.9036C4.62512 35.3985 4.52783 34.8979 4.33612 34.4306C4.14441 33.9634 3.86209 33.5387 3.50543 33.1811C3.14877 32.8234 2.72484 32.54 2.25808 32.347C1.79132 32.154 1.29098 32.0554 0.785909 32.0568Z" fill="#5E4FFF"/>
<path d="M15.4028 15.1494C14.8985 15.0526 14.4011 14.923 13.9137 14.7616C12.3268 17.4888 9.74551 19.4956 6.71124 20.3612C7.24643 20.633 7.79718 20.873 8.36062 21.0799L8.74323 21.2195C11.5826 20.0027 13.9288 17.8642 15.4028 15.1494Z" fill="#5E4FFF"/>
<path d="M15.5579 8.62951C15.7389 8.62951 15.9302 8.59848 16.1267 8.59332C16.4421 8.59332 16.742 8.59331 17.0419 8.56746C17.016 5.45379 15.9207 2.44361 13.9396 0.0413818C13.343 0.0874401 12.7493 0.165106 12.1609 0.274052C14.3279 2.51725 15.5449 5.51062 15.5579 8.62951Z" fill="#5E4FFF"/>
<path d="M9.1465 1.03406L8.9552 1.09093C8.44686 1.26375 7.94956 1.4675 7.46611 1.70105C8.99701 2.59501 10.191 3.96814 10.8637 5.60837C11.5363 7.2486 11.6502 9.06467 11.1878 10.7761C10.7254 12.4875 9.71236 13.9991 8.30517 15.0774C6.89798 16.1556 5.17493 16.7406 3.40213 16.7419C3.12809 16.7419 2.88508 16.7419 2.60071 16.7005C2.93967 17.2358 3.32183 17.7425 3.74338 18.2155C5.42781 18.1545 7.06611 17.6489 8.49186 16.7498C9.91761 15.8508 11.08 14.5904 11.861 13.0967C11.6936 12.7765 11.5983 12.4236 11.5818 12.0626C11.588 11.6364 11.6832 11.2162 11.8613 10.8289C12.0394 10.4416 12.2964 10.0957 12.6159 9.81349C12.7184 9.71033 12.8272 9.61363 12.9416 9.52394C12.9675 9.24991 12.983 8.97588 12.983 8.69667C12.9858 7.20865 12.6403 5.74063 11.9741 4.41006C11.308 3.07949 10.3396 1.92332 9.1465 1.03406Z" fill="#5E4FFF"/>
<path d="M8.87767 8.67085C8.87714 7.464 8.4779 6.29115 7.74203 5.33461C7.00616 4.37807 5.97488 3.69144 4.80853 3.38147C4.40165 3.71869 4.01654 4.08135 3.65551 4.46727C3.5883 4.53448 3.52625 4.61204 3.46421 4.68442C4.0861 4.69354 4.69724 4.84803 5.24874 5.13557C5.80025 5.4231 6.27682 5.83569 6.64036 6.34034C7.0039 6.845 7.24431 7.42771 7.34237 8.04189C7.44044 8.65607 7.39343 9.28468 7.20511 9.87744C7.01679 10.4702 6.69238 11.0107 6.25783 11.4557C5.82328 11.9006 5.29064 12.2377 4.7025 12.4401C4.11436 12.6424 3.48705 12.7042 2.87072 12.6208C2.25438 12.5373 1.66614 12.3107 1.15302 11.9593C1.16091 12.5546 1.22147 13.1481 1.33398 13.7327C2.16474 14.073 3.06647 14.2036 3.95963 14.1129C4.85278 14.0223 5.7099 13.7132 6.45537 13.213C7.20084 12.7128 7.81174 12.0368 8.23418 11.2447C8.65663 10.4525 8.87762 9.56859 8.87767 8.67085Z" fill="#5E4FFF"/>
<path d="M19.0273 39.9779C17.2106 39.0573 15.6541 37.6953 14.5005 36.0169C13.3469 34.3384 12.6331 32.3972 12.4246 30.3712C12.3109 30.3299 12.1971 30.2937 12.0834 30.2471C11.6775 30.0974 11.2805 29.9248 10.8942 29.7301C10.9808 31.7264 11.5061 33.6791 12.4328 35.4494C13.3595 37.2197 14.6648 38.7641 16.2559 39.9728H16.8971C17.5037 40.0072 18.2138 40.009 19.0273 39.9779Z" fill="#8DC9F8"/>
<path d="M14.3066 22.5587C15.4074 20.8479 16.9202 19.441 18.7062 18.4671C20.4923 17.4933 22.4943 16.9836 24.5286 16.985C25.0683 16.9861 25.6073 17.0241 26.1418 17.0987L25.9505 17.0315C24.8548 16.6951 23.7415 16.419 22.6156 16.2042L20.992 15.9716C17.5056 16.9154 14.5326 19.1971 12.7193 22.3209L13.1071 22.3881L14.3066 22.5587Z" fill="#8DC9F8"/>
<path d="M19.0893 23.1688C20.3914 21.9852 22.0445 21.2595 23.7971 21.1022C25.5497 20.945 27.3056 21.3647 28.7976 22.2977C30.2895 23.2306 31.4357 24.6255 32.0616 26.27C32.6875 27.9145 32.7589 29.7186 32.2648 31.4074C31.7707 33.0962 30.7382 34.5773 29.3246 35.6251C27.911 36.6729 26.1936 37.23 24.4341 37.2116C22.6746 37.1933 20.9693 36.6004 19.5779 35.5233C18.1864 34.4461 17.1851 32.9438 16.7264 31.2451C16.1215 31.214 15.5993 31.1675 15.1753 31.1003C15.6297 33.2455 16.8063 35.17 18.5086 36.5523C20.2108 37.9347 22.3358 38.6912 24.5286 38.6957C25.4498 38.6962 26.366 38.5621 27.2483 38.2976C27.4448 38.2148 27.6413 38.1269 27.8377 38.0339C30.6247 36.6475 32.772 34.2429 33.8355 31.3174C34.0039 30.6041 34.089 29.8736 34.0888 29.1407C34.0916 27.187 33.4948 25.2795 32.379 23.6758C31.2632 22.0721 29.6821 20.8494 27.8493 20.1729C26.0165 19.4964 24.0202 19.3986 22.13 19.8927C20.2399 20.3869 18.5469 21.4492 17.2797 22.9361L18.4689 23.0809L19.0893 23.1688Z" fill="#8DC9F8"/>
<path d="M23.4118 24.7509C23.534 24.9032 23.648 25.062 23.7531 25.2266C24.0082 25.1736 24.2681 25.1476 24.5287 25.149C25.2321 25.1479 25.9234 25.3327 26.5324 25.6847C27.1415 26.0367 27.6467 26.5434 27.9969 27.1535C28.3471 27.7636 28.5299 28.4554 28.5266 29.1589C28.5234 29.8624 28.3344 30.5525 27.9786 31.1593C27.6228 31.7662 27.113 32.2683 26.5007 32.6147C25.8885 32.9611 25.1955 33.1396 24.4921 33.132C23.7887 33.1244 23.0998 32.9311 22.4951 32.5716C21.8905 32.212 21.3916 31.6991 21.0489 31.0847C20.5385 31.1933 20.0194 31.2556 19.4978 31.2709C19.9198 32.2666 20.6269 33.1152 21.5301 33.71C22.4333 34.3047 23.4923 34.6189 24.5738 34.613C25.6552 34.6072 26.7107 34.2815 27.6075 33.677C28.5042 33.0726 29.2021 32.2163 29.6132 31.2161C30.0244 30.2158 30.1304 29.1163 29.918 28.0559C29.7056 26.9956 29.1842 26.0217 28.4195 25.257C27.6548 24.4923 26.681 23.9709 25.6206 23.7585C24.5602 23.5461 23.4607 23.6521 22.4605 24.0633C22.8227 24.2225 23.147 24.4569 23.4118 24.7509Z" fill="#8DC9F8"/>
</svg>
